<?xml version="1.0" standalone="no"?>
<!DOCTYPE svg PUBLIC "-//W3C//DTD SVG 20010904//EN"
 "http://www.w3.org/TR/2001/REC-SVG-20010904/DTD/svg10.dtd">
<svg version="1.0" xmlns="http://www.w3.org/2000/svg"
 width="334.000000pt" height="149.000000pt" viewBox="0 0 334.000000 149.000000"
 preserveAspectRatio="xMidYMid meet">

<g transform="translate(0.000000,149.000000) scale(0.100000,-0.100000)"
fill="#000000" stroke="none">
<path d="M557 1389 c-77 -26 -122 -56 -175 -113 -88 -95 -136 -250 -114 -367
14 -76 50 -154 92 -202 17 -20 27 -37 21 -37 -12 0 -186 45 -239 61 -42 14
-85 4 -116 -28 -22 -22 -26 -35 -26 -84 0 -55 2 -59 27 -65 17 -5 37 -1 55 9
15 9 28 12 28 8 0 -5 84 -40 186 -78 175 -64 188 -70 200 -100 19 -44 18 -57
-3 -48 -10 3 -45 14 -79 23 -70 18 -112 8 -134 -33 -23 -42 -13 -78 48 -180
68 -115 93 -135 141 -115 38 15 54 49 45 96 l-6 34 48 -21 c80 -34 282 -55
361 -37 28 6 32 4 38 -20 10 -39 24 -52 56 -52 24 0 34 10 73 73 25 41 46 85
46 100 0 42 -38 77 -90 83 -73 9 -71 6 -51 76 l18 63 102 3 c99 3 104 2 127
-23 47 -51 106 -22 118 58 14 89 -2 97 -264 143 -133 23 -128 18 -75 75 52 55
89 129 106 207 10 50 12 52 37 46 40 -10 115 -49 150 -78 16 -15 34 -26 40
-26 12 0 22 24 22 52 0 12 19 39 41 60 29 28 38 43 31 50 -13 13 -217 67 -256
68 -77 1 65 43 187 56 71 7 76 12 52 54 -8 14 -14 49 -15 79 l0 54 -50 -7
c-79 -11 -170 -42 -230 -80 l-54 -34 -15 21 c-25 39 -95 108 -133 133 -100 64
-257 83 -371 43z m318 -46 c64 -33 151 -116 180 -174 109 -209 12 -473 -208
-567 -90 -39 -222 -34 -319 12 -332 157 -308 623 38 746 48 17 76 20 154 17
82 -3 103 -8 155 -34z m505 -97 c0 -19 4 -46 10 -60 9 -24 7 -26 -28 -31 -30
-4 -197 -41 -237 -53 -6 -1 -16 12 -23 30 -11 30 -10 34 10 50 38 28 109 61
173 79 89 26 95 25 95 -15z m-131 -218 c30 -6 77 -17 104 -25 l49 -14 -21 -23
c-11 -12 -25 -36 -31 -53 l-11 -31 -50 34 c-27 18 -74 41 -104 50 -52 17 -55
19 -55 51 0 36 -9 35 119 11z m-1077 -337 l27 -10 -22 -51 c-23 -55 -37 -64
-37 -25 0 14 -4 25 -9 25 -5 0 -17 3 -25 6 -12 5 -19 -2 -27 -25 -8 -23 -17
-31 -34 -31 -28 0 -34 15 -23 57 17 65 71 85 150 54z m181 -47 c56 -14 116
-34 132 -44 52 -31 125 -51 196 -51 58 -1 69 -3 69 -18 0 -35 -53 -121 -105
-170 -66 -63 -82 -59 -114 27 l-22 58 -159 59 c-88 33 -160 64 -160 69 0 26
34 96 47 96 8 0 60 -12 116 -26z m720 -53 c54 -11 100 -21 103 -23 5 -6 -16
-69 -29 -85 -6 -9 -37 -13 -86 -13 l-77 0 -19 -75 c-10 -42 -25 -81 -32 -87
-17 -14 -215 -24 -269 -14 l-37 7 50 52 c53 55 79 96 98 160 10 34 17 41 62
57 28 10 59 23 69 29 27 15 55 14 167 -8z m239 -52 c17 -9 20 -18 14 -56 -3
-24 -8 -49 -12 -54 -9 -16 -42 -10 -57 11 -8 11 -28 23 -45 26 -18 4 -32 8
-32 10 0 2 7 22 17 45 16 40 17 41 56 35 22 -4 48 -11 59 -17z m-832 -219 c86
-28 100 -36 143 -83 27 -29 53 -61 59 -71 10 -18 7 -18 -33 -12 -24 3 -73 21
-110 39 l-65 33 -59 -28 -59 -28 -29 47 c-34 54 -37 85 -12 113 24 27 54 25
165 -10z m603 -67 c23 -21 22 -58 -3 -93 -18 -25 -23 -27 -62 -19 -26 5 -71 4
-115 -3 -39 -6 -92 -7 -117 -4 -45 7 -61 21 -133 116 -10 13 2 15 95 12 59 -2
125 1 147 7 53 13 165 3 188 -16z m-603 -103 c6 -23 8 -50 5 -60 -7 -22 -35
-33 -58 -24 -17 6 -62 72 -55 79 3 4 90 44 95 45 1 0 7 -18 13 -40z m560 -45
c0 -2 -3 -10 -6 -19 -6 -17 -44 -23 -44 -7 0 5 -2 16 -5 24 -5 10 1 13 25 9
16 -2 30 -6 30 -7z"/>
<path d="M481 1105 c-89 -12 -97 -15 -128 -49 -28 -31 -33 -43 -33 -87 0 -76
31 -120 103 -143 9 -3 63 2 120 10 109 17 282 14 347 -6 53 -16 106 -3 145 36
60 59 56 145 -9 202 -29 25 -46 30 -135 40 -128 15 -288 14 -410 -3z m467 -34
c24 -4 54 -19 67 -31 55 -51 39 -142 -30 -174 -33 -16 -44 -17 -103 -5 -86 18
-288 18 -374 0 -55 -11 -71 -11 -94 1 -42 20 -67 61 -67 109 0 64 39 95 130
104 37 4 73 8 78 11 17 7 348 -5 393 -15z"/>
<path d="M400 1040 c0 -6 16 -18 35 -27 39 -19 42 -25 20 -43 -36 -30 -4 -90
49 -90 19 0 32 8 43 29 15 25 20 27 40 18 24 -11 39 -5 29 11 -9 15 -184 112
-201 112 -8 0 -15 -5 -15 -10z m125 -105 c0 -22 -31 -33 -47 -17 -17 17 -1 44
24 40 15 -2 23 -10 23 -23z"/>
<path d="M871 997 c-52 -28 -92 -56 -90 -62 4 -11 15 -11 42 0 13 5 17 2 17
-12 0 -28 20 -43 57 -43 49 0 64 40 38 102 -5 12 1 21 24 33 31 16 41 35 19
35 -7 0 -55 -24 -107 -53z m49 -62 c0 -20 -5 -25 -24 -25 -13 0 -26 6 -29 13
-7 22 4 37 29 37 19 0 24 -5 24 -25z"/>
<path d="M1748 1262 l-48 -3 0 -240 0 -239 55 0 54 0 3 147 3 148 95 -148 95
-147 52 0 52 0 3 198 c2 108 2 216 0 240 l-3 42 -54 0 -54 0 -3 -142 -3 -143
-90 142 c-49 79 -94 144 -100 145 -5 2 -31 2 -57 0z"/>
<path d="M2172 1254 c-39 -27 -25 -94 24 -108 27 -8 74 28 74 57 0 28 -9 41
-37 56 -28 14 -34 14 -61 -5z"/>
<path d="M2680 1252 c-26 -21 -30 -66 -7 -89 23 -23 68 -19 89 7 24 30 23 46
-7 75 -29 30 -45 31 -75 7z"/>
<path d="M2440 1073 c-17 -12 -25 -13 -28 -5 -2 7 -25 12 -58 12 l-54 0 0
-150 0 -150 55 0 55 0 0 99 c0 92 2 101 22 115 29 21 51 20 71 -2 13 -15 17
-39 17 -115 l0 -97 56 0 56 0 -3 119 c-3 102 -7 122 -24 141 -42 48 -121 63
-165 33z"/>
<path d="M2870 1072 c-53 -26 -80 -74 -80 -142 0 -123 109 -195 213 -140 31
17 37 17 37 5 0 -11 12 -15 50 -15 l50 0 0 150 0 150 -55 0 c-30 0 -55 -4 -55
-9 0 -6 -16 -3 -35 5 -46 19 -82 18 -125 -4z m149 -98 c27 -35 26 -59 -4 -89
-47 -48 -115 -22 -115 45 0 29 6 43 22 54 34 24 73 20 97 -10z"/>
<path d="M2160 940 c0 -77 -1 -143 -2 -147 -2 -5 21 -9 50 -11 l52 -3 0 150 0
151 -50 0 -50 0 0 -140z"/>
<path d="M2658 898 l-3 -183 -25 0 c-19 0 -27 -9 -39 -38 -7 -21 -11 -40 -8
-44 4 -3 29 -8 57 -11 36 -3 57 0 76 13 46 30 54 68 54 265 l0 180 -55 0 -55
0 -2 -182z"/>
<path d="M1622 700 c-69 -43 -92 -128 -49 -190 13 -20 52 -50 97 -74 75 -41
92 -64 70 -91 -23 -28 -68 -28 -126 0 -30 15 -56 25 -58 24 -1 -2 -13 -22 -26
-43 l-23 -39 22 -19 c36 -29 127 -51 182 -45 100 12 159 67 159 150 0 56 -36
96 -125 142 -81 40 -98 62 -75 90 16 19 73 19 110 0 28 -14 29 -14 49 19 31
50 27 62 -26 80 -65 22 -140 21 -181 -4z"/>
<path d="M2908 588 l-3 -53 -52 3 c-52 3 -78 -5 -107 -34 -15 -14 -16 -14 -16
5 0 18 -6 21 -50 21 l-50 0 0 -150 0 -150 50 0 50 0 0 90 c0 117 9 127 109
128 l71 0 0 -83 c0 -73 3 -87 23 -110 27 -31 89 -43 127 -23 21 12 32 11 65 0
50 -17 130 -9 165 16 14 11 29 33 34 49 13 48 -10 83 -74 115 -30 15 -55 33
-55 40 0 14 36 16 72 4 18 -6 25 -1 38 25 14 26 15 33 3 40 -38 24 -145 22
-179 -4 -22 -17 -39 -51 -39 -79 0 -30 42 -71 93 -92 41 -17 45 -39 9 -44 -11
-2 -34 4 -51 12 -29 15 -30 15 -49 -11 -19 -27 -20 -27 -26 -5 -5 15 -15 22
-32 22 -23 0 -24 3 -24 65 l0 65 30 0 c28 0 30 2 30 40 0 38 -2 40 -30 40 -30
0 -30 1 -30 55 l0 55 -49 0 -50 0 -3 -52z"/>
<path d="M2035 525 c-19 -10 -31 -12 -33 -6 -2 6 -28 11 -58 11 l-54 0 0 -225
0 -225 55 0 55 0 0 84 0 84 43 -16 c78 -28 162 9 188 83 l12 33 19 -36 c50
-102 205 -121 296 -37 36 32 37 36 37 103 0 61 -3 74 -25 98 -77 83 -212 84
-285 2 -19 -21 -35 -46 -35 -55 0 -10 -10 3 -22 27 -13 24 -35 52 -49 63 -37
26 -106 32 -144 12z m73 -91 c31 -21 31 -87 0 -108 -48 -34 -111 -4 -111 52 0
62 60 92 111 56z m360 0 c31 -21 31 -87 0 -108 -48 -34 -111 -4 -111 52 0 62
60 92 111 56z"/>
</g>
</svg>
